HIERARCHY
ROOT Hips
{
	OFFSET 0.000000 83.214638 0.000000
	CHANNELS 6 Xposition Yposition Zposition Xrotation Yrotation Zrotation
	JOINT Pelvis
	{
		OFFSET 0.000000 0.000000 0.000000
		CHANNELS 3 Xrotation Yrotation Zrotation
		JOINT LeftUpLeg
		{
			OFFSET 8.479700 -4.795502 -0.379100
			CHANNELS 3 Xrotation Yrotation Zrotation
			JOINT LeftLeg
			{
				OFFSET 0.024144 -32.555107 0.112900
				CHANNELS 3 Xrotation Yrotation Zrotation
				JOINT LeftFoot
				{
					OFFSET -0.024144 -32.638630 -3.012600
					CHANNELS 3 Xrotation Yrotation Zrotation
					JOINT LeftToeBase
					{
						OFFSET 0.970200 -13.225400 11.864200
						CHANNELS 3 Xrotation Yrotation Zrotation
						End Site
						{
							OFFSET 0.000000 12.319262 0.000000
						}
					}
					JOINT LFootTongue
					{
						OFFSET 1.142400 -1.059800 6.665200
						CHANNELS 3 Xrotation Yrotation Zrotation
						End Site
						{
							OFFSET 0.000000 12.319262 0.000000
						}
					}
				}
				JOINT LeftPantLeg
				{
					OFFSET 0.918482 -16.533964 -2.284700
					CHANNELS 3 Xrotation Yrotation Zrotation
					End Site
					{
						OFFSET 0.350399 24.744368 0.000000
					}
				}
			}
		}
		JOINT RightUpLeg
		{
			OFFSET -8.479700 -4.795502 -0.379100
			CHANNELS 3 Xrotation Yrotation Zrotation
			JOINT RightLeg
			{
				OFFSET -0.023144 -32.555092 0.112900
				CHANNELS 3 Xrotation Yrotation Zrotation
				JOINT RightFoot
				{
					OFFSET 0.023144 -32.638641 -3.012700
					CHANNELS 3 Xrotation Yrotation Zrotation
					JOINT RightToeBase
					{
						OFFSET -0.970200 -13.225400 11.864200
						CHANNELS 3 Xrotation Yrotation Zrotation
						End Site
						{
							OFFSET 0.000000 12.319244 0.000000
						}
					}
					JOINT RFootTongue
					{
						OFFSET -1.142200 -1.059800 6.665200
						CHANNELS 3 Xrotation Yrotation Zrotation
						End Site
						{
							OFFSET 0.000000 12.319243 0.000000
						}
					}
				}
				JOINT RightPantLeg
				{
					OFFSET -0.919482 -16.533978 -2.284800
					CHANNELS 3 Xrotation Yrotation Zrotation
					End Site
					{
						OFFSET -0.350400 24.744419 0.000000
					}
				}
			}
		}
	}
	JOINT Spine
	{
		OFFSET 0.000000 7.722000 1.166200
		CHANNELS 3 Xrotation Yrotation Zrotation
		JOINT Spine1
		{
			OFFSET 0.000000 12.024101 0.248800
			CHANNELS 3 Xrotation Yrotation Zrotation
			JOINT Spine2
			{
				OFFSET 0.000000 11.502998 -0.491200
				CHANNELS 3 Xrotation Yrotation Zrotation
				JOINT Neck
				{
					OFFSET 0.000000 18.430702 -3.123100
					CHANNELS 3 Xrotation Yrotation Zrotation
					JOINT Head
					{
						OFFSET 0.000000 9.051102 1.034000
						CHANNELS 3 Xrotation Yrotation Zrotation
						JOINT HairB
						{
							OFFSET 0.208400 24.786102 24.822300
							CHANNELS 3 Xrotation Yrotation Zrotation
							End Site
							{
								OFFSET 0.000000 32.263779 0.000000
							}
						}
						JOINT HairA
						{
							OFFSET -7.081100 24.428299 23.196600
							CHANNELS 3 Xrotation Yrotation Zrotation
							End Site
							{
								OFFSET 0.000000 32.263779 0.000000
							}
						}
						JOINT Hat
						{
							OFFSET 16.728800 15.048294 -15.439601
							CHANNELS 3 Xrotation Yrotation Zrotation
							End Site
							{
								OFFSET 0.000000 32.263779 0.000000
							}
						}
					}
				}
				JOINT LeftShoulder
				{
					OFFSET 6.197800 13.665199 -4.064700
					CHANNELS 3 Xrotation Yrotation Zrotation
					JOINT LeftArm
					{
						OFFSET 7.778100 -0.187103 -1.709300
						CHANNELS 3 Xrotation Yrotation Zrotation
						JOINT LeftForeArm
						{
							OFFSET 22.049376 0.000000 0.000000
							CHANNELS 3 Xrotation Yrotation Zrotation
							JOINT LeftHand
							{
								OFFSET 23.009392 0.000000 0.000000
								CHANNELS 3 Xrotation Yrotation Zrotation
								JOINT LeftHandThumb1
								{
									OFFSET 3.507191 -2.063065 3.133727
									CHANNELS 3 Xrotation Yrotation Zrotation
									JOINT LeftHandThumb2
									{
										OFFSET 3.101337 -1.790558 1.790558
										CHANNELS 3 Xrotation Yrotation Zrotation
										JOINT LeftHandThumb3
										{
											OFFSET 3.058640 -1.765907 1.765906
											CHANNELS 3 Xrotation Yrotation Zrotation
											End Site
											{
												OFFSET -0.415260 3.926476 -0.049563
											}
										}
									}
								}
								JOINT LeftHandIndex1
								{
									OFFSET 11.334419 -0.901459 3.706815
									CHANNELS 3 Xrotation Yrotation Zrotation
									JOINT LeftHandIndex2
									{
										OFFSET 3.283112 0.000000 0.000000
										CHANNELS 3 Xrotation Yrotation Zrotation
										JOINT LeftHandIndex3
										{
											OFFSET 3.323853 0.000000 0.000000
											CHANNELS 3 Xrotation Yrotation Zrotation
											End Site
											{
												OFFSET -1.135597 3.097809 0.402452
											}
										}
									}
								}
								JOINT LeftHandMiddle1
								{
									OFFSET 11.335861 0.000000 0.000000
									CHANNELS 3 Xrotation Yrotation Zrotation
									JOINT LeftHandMiddle2
									{
										OFFSET 3.410492 0.000000 0.000000
										CHANNELS 3 Xrotation Yrotation Zrotation
										JOINT LeftHandMiddle3
										{
											OFFSET 3.312172 0.000000 0.000000
											CHANNELS 3 Xrotation Yrotation Zrotation
											End Site
											{
												OFFSET -1.150200 3.080154 0.400270
											}
										}
									}
								}
								JOINT LeftHandRing1
								{
									OFFSET 11.514786 -0.013176 -3.003090
									CHANNELS 3 Xrotation Yrotation Zrotation
									JOINT LeftHandRing2
									{
										OFFSET 3.053307 0.000000 0.000000
										CHANNELS 3 Xrotation Yrotation Zrotation
										JOINT LeftHandRing3
										{
											OFFSET 3.295807 0.000000 0.000000
											CHANNELS 3 Xrotation Yrotation Zrotation
											End Site
											{
												OFFSET -1.281006 3.013344 0.375733
											}
										}
									}
								}
								JOINT LeftHandPinky1
								{
									OFFSET 10.518692 -0.960396 -5.730441
									CHANNELS 3 Xrotation Yrotation Zrotation
									JOINT LeftHandPinky2
									{
										OFFSET 2.861649 0.000000 0.000000
										CHANNELS 3 Xrotation Yrotation Zrotation
										JOINT LeftHandPinky3
										{
											OFFSET 2.863380 0.000000 0.000000
											CHANNELS 3 Xrotation Yrotation Zrotation
											End Site
											{
												OFFSET -0.843597 2.711159 0.369971
											}
										}
									}
								}
							}
							JOINT LSleeve
							{
								OFFSET 6.676277 -0.344902 -1.011730
								CHANNELS 3 Xrotation Yrotation Zrotation
								End Site
								{
									OFFSET 0.000000 14.885353 0.000000
								}
							}
						}
					}
				}
				JOINT RightShoulder
				{
					OFFSET -6.197800 13.665199 -4.064700
					CHANNELS 3 Xrotation Yrotation Zrotation
					JOINT RightArm
					{
						OFFSET -7.778100 -0.187103 -1.709300
						CHANNELS 3 Xrotation Yrotation Zrotation
						JOINT RightForeArm
						{
							OFFSET -22.049376 0.000000 0.000000
							CHANNELS 3 Xrotation Yrotation Zrotation
							JOINT RightHand
							{
								OFFSET -23.009392 0.000000 0.000000
								CHANNELS 3 Xrotation Yrotation Zrotation
								JOINT RightHandThumb1
								{
									OFFSET -3.507191 -2.063065 3.133727
									CHANNELS 3 Xrotation Yrotation Zrotation
									JOINT RightHandThumb2
									{
										OFFSET -3.101337 -1.790558 1.790558
										CHANNELS 3 Xrotation Yrotation Zrotation
										JOINT RightHandThumb3
										{
											OFFSET -3.058640 -1.765907 1.765906
											CHANNELS 3 Xrotation Yrotation Zrotation
											End Site
											{
												OFFSET 0.415260 3.926476 -0.049563
											}
										}
									}
								}
								JOINT RightHandIndex1
								{
									OFFSET -11.334419 -0.901459 3.706815
									CHANNELS 3 Xrotation Yrotation Zrotation
									JOINT RightHandIndex2
									{
										OFFSET -3.283112 0.000000 0.000000
										CHANNELS 3 Xrotation Yrotation Zrotation
										JOINT RightHandIndex3
										{
											OFFSET -3.323853 0.000000 0.000000
											CHANNELS 3 Xrotation Yrotation Zrotation
											End Site
											{
												OFFSET 1.135597 3.097809 0.402452
											}
										}
									}
								}
								JOINT RightHandMiddle1
								{
									OFFSET -11.335861 0.000000 0.000000
									CHANNELS 3 Xrotation Yrotation Zrotation
									JOINT RightHandMiddle2
									{
										OFFSET -3.410492 0.000000 0.000000
										CHANNELS 3 Xrotation Yrotation Zrotation
										JOINT RightHandMiddle3
										{
											OFFSET -3.312172 0.000000 0.000000
											CHANNELS 3 Xrotation Yrotation Zrotation
											End Site
											{
												OFFSET 1.150200 3.080154 0.400270
											}
										}
									}
								}
								JOINT RightHandRing1
								{
									OFFSET -11.514786 -0.013176 -3.003090
									CHANNELS 3 Xrotation Yrotation Zrotation
									JOINT RightHandRing2
									{
										OFFSET -3.053307 0.000000 0.000000
										CHANNELS 3 Xrotation Yrotation Zrotation
										JOINT RightHandRing3
										{
											OFFSET -3.295807 0.000000 0.000000
											CHANNELS 3 Xrotation Yrotation Zrotation
											End Site
											{
												OFFSET 1.281006 3.013344 0.375733
											}
										}
									}
								}
								JOINT RightHandPinky1
								{
									OFFSET -10.518692 -0.960396 -5.730441
									CHANNELS 3 Xrotation Yrotation Zrotation
									JOINT RightHandPinky2
									{
										OFFSET -2.861649 0.000000 0.000000
										CHANNELS 3 Xrotation Yrotation Zrotation
										JOINT RightHandPinky3
										{
											OFFSET -2.863380 0.000000 0.000000
											CHANNELS 3 Xrotation Yrotation Zrotation
											End Site
											{
												OFFSET 0.843597 2.711159 0.369971
											}
										}
									}
								}
							}
							JOINT RSleeve
							{
								OFFSET -6.676277 -0.344902 -1.011730
								CHANNELS 3 Xrotation Yrotation Zrotation
								End Site
								{
									OFFSET 0.000000 14.885353 0.000000
								}
							}
						}
					}
				}
				JOINT Backpack
				{
					OFFSET 0.000000 -2.471497 36.677502
					CHANNELS 3 Xrotation Yrotation Zrotation
					End Site
					{
						OFFSET 0.000000 20.427315 0.000000
					}
				}
				JOINT Hood
				{
					OFFSET 0.000000 18.754097 -10.431000
					CHANNELS 3 Xrotation Yrotation Zrotation
					JOINT Hood1
					{
						OFFSET 0.000000 -5.011002 -7.685901
						CHANNELS 3 Xrotation Yrotation Zrotation
						End Site
						{
							OFFSET 0.000000 9.175140 0.000000
						}
					}
				}
				JOINT LHoodieString
				{
					OFFSET 5.250500 16.397697 3.089900
					CHANNELS 3 Xrotation Yrotation Zrotation
					JOINT LHoodieString1
					{
						OFFSET 0.257700 -6.364304 3.694600
						CHANNELS 3 Xrotation Yrotation Zrotation
						JOINT LHoodieString2
						{
							OFFSET 0.000000 -9.643799 2.679100
							CHANNELS 3 Xrotation Yrotation Zrotation
							End Site
							{
								OFFSET 0.000000 10.009018 0.000000
							}
						}
					}
				}
				JOINT RHoodieString
				{
					OFFSET -5.250500 16.397697 3.089900
					CHANNELS 3 Xrotation Yrotation Zrotation
					JOINT RHoodieString1
					{
						OFFSET -0.257700 -6.364304 3.694600
						CHANNELS 3 Xrotation Yrotation Zrotation
						JOINT RHoodieString2
						{
							OFFSET 0.000000 -9.643799 2.679100
							CHANNELS 3 Xrotation Yrotation Zrotation
							End Site
							{
								OFFSET 0.000000 10.009018 0.000000
							}
						}
					}
				}
			}
			JOINT LBackpack_Strap
			{
				OFFSET 15.223200 -7.719803 -6.610900
				CHANNELS 3 Xrotation Yrotation Zrotation
				End Site
				{
					OFFSET 0.000000 16.040596 0.000000
				}
			}
			JOINT RBackpack_Strap
			{
				OFFSET -15.223000 -7.719803 -6.610900
				CHANNELS 3 Xrotation Yrotation Zrotation
				End Site
				{
					OFFSET 0.000000 16.040596 0.000000
				}
			}
		}
	}
	JOINT BoyFacialAnim_Joint
	{
		OFFSET 1.000000 -82.208099 -1.550900
		CHANNELS 3 Xrotation Yrotation Zrotation
		End Site
		{
			OFFSET 0.000000 30.012791 0.000000
		}
	}
}
MOTION
Frames: 4
Frame Time: 0.016667
0.569812 71.677444 27.740227 11.280816 -1.141103 -6.122303 -0.000000 0.000000 0.000000 -61.113350 -3.693407 8.715233 127.232040 4.812565 0.357809 9.529605 0.532212 -1.928517 0.000000 -0.000000 -0.000001 0.000000 -0.000000 -0.000000 -0.000001 0.000001 0.000000 -37.061119 -11.601168 7.144634 59.208540 0.405359 1.321678 -32.962192 2.831261 -7.662697 -0.000000 0.000000 0.000000 -0.000000 0.000000 0.000000 -0.000003 -0.000000 -0.000000 9.975134 1.753973 8.233394 2.029112 -0.047010 0.508498 4.987198 -0.052526 0.186540 -3.841286 -0.341669 -0.277916 -16.135764 0.809281 -3.139614 0.000001 -0.000000 0.000000 0.000001 -0.000000 0.000000 0.000001 -0.000000 0.000000 0.557759 -4.314609 -11.777486 13.923813 -4.816974 -56.121400 -0.000000 -89.999921 0.000005 3.946655 -2.534480 11.903156 -0.820501 6.623780 -5.864580 14.168503 15.386707 18.402785 -0.000003 0.000001 0.000000 9.947289 5.735771 -90.836250 4.054218 5.569255 -72.086397 -0.000003 0.000001 0.000000 4.883444 8.108008 -80.603370 4.657612 5.728459 -78.210782 -0.000003 -0.000001 0.000002 2.753128 7.678700 -78.443521 5.946870 5.850292 -90.939871 -0.000004 0.000001 -0.000002 7.311314 13.596485 -78.537231 4.413860 5.672413 -75.756968 -0.000000 0.000003 0.000000 -0.000000 0.000000 0.000001 0.567973 4.488693 11.813870 -16.187036 25.518748 44.451175 -0.000361 90.272240 -0.000135 7.843985 11.318569 -12.809368 5.535783 -3.771061 -3.032809 2.457536 -9.078652 -15.939558 -0.000000 0.000001 -0.000001 -3.723512 -3.298359 73.104997 3.463138 -4.501837 75.128509 -0.000000 -0.000000 0.000002 -3.073215 -4.980246 74.622337 3.766068 -4.571306 78.957000 0.000001 0.000000 0.000003 -3.819539 -5.359681 78.849541 3.124246 -4.398171 70.762836 0.000001 0.000001 0.000001 -1.443996 -6.451680 84.219525 3.515517 -4.515377 75.795067 -0.000000 -0.000000 -0.000002 -0.000000 -0.000002 -0.000001 -0.000001 0.000000 0.000000 -0.000001 0.000000 0.000000 -0.000001 0.000000 0.000000 -0.000001 0.000000 0.000000 -0.000001 0.000000 0.000000 -0.000001 -0.000000 0.000000 -0.000001 0.000000 0.000000 -0.000001 0.000000 0.000000 -0.000001 -0.000000 0.000000 -0.000001 0.000000 0.000000 -0.000001 0.000000 0.000000 -0.000000 0.000000 0.000000 
0.720606 71.701988 31.574354 12.160148 -1.541181 -4.929273 -0.000000 0.000000 0.000000 -75.516668 -3.223411 8.610184 125.259071 4.750545 -0.728964 3.221517 0.379084 0.110295 0.000001 0.000000 -0.000001 0.000001 0.000000 -0.000000 0.000000 -0.000000 -0.000001 -34.394907 -10.512279 7.216377 59.002637 -0.792559 0.200796 -35.078397 2.847477 -7.317561 0.000000 -0.000000 -0.000000 0.000000 -0.000000 -0.000000 0.000002 -0.000000 -0.000000 10.830080 2.673136 6.625697 2.512571 0.388421 -0.101538 5.375356 0.319863 -0.444561 -4.070067 -0.572483 0.096463 -17.422067 0.090383 -1.909408 0.000001 0.000000 -0.000000 0.000001 0.000000 -0.000000 0.000001 0.000000 -0.000000 0.550769 -4.131759 -11.649549 15.857053 -4.083514 -55.500522 0.000325 -84.180838 0.000312 -0.007477 -3.522491 9.556828 -0.816965 6.649062 -5.842813 14.164847 15.374440 18.442522 0.000000 0.000001 -0.000001 10.008362 5.729155 -90.997927 4.064118 5.572417 -72.188481 0.000000 -0.000002 -0.000002 4.897396 8.110499 -80.744003 4.669163 5.730854 -78.326294 -0.000001 0.000000 -0.000003 2.740982 7.681196 -78.578909 5.961407 5.850038 -91.082478 -0.000000 0.000002 -0.000000 7.299129 13.584380 -78.671840 4.424748 5.675152 -75.867105 -0.000003 -0.000003 0.000001 -0.000001 -0.000002 -0.000000 0.473737 5.340370 11.212076 -18.532571 23.013663 45.080731 -0.003044 92.047290 0.003107 6.621901 11.435208 -18.486768 5.528110 -3.804581 -3.069133 2.442967 -9.034343 -15.978951 -0.000002 -0.000001 0.000001 -3.685723 -3.342059 73.312368 3.475288 -4.505013 75.283110 -0.000001 -0.000004 0.000005 -3.084172 -5.003715 74.836539 3.779349 -4.573874 79.123930 0.000001 -0.000001 0.000001 -3.868922 -5.381856 79.076754 3.134978 -4.401887 70.902698 -0.000002 -0.000000 0.000004 -1.521154 -6.464692 84.494788 3.527863 -4.518495 75.951820 0.000004 0.000001 0.000002 0.000000 0.000000 0.000001 0.000004 -0.000000 -0.000000 0.000004 -0.000000 -0.000000 0.000004 -0.000000 -0.000000 0.000004 -0.000000 -0.000000 0.000004 -0.000000 -0.000000 0.000001 -0.000000 -0.000000 0.000004 -0.000000 -0.000000 0.000004 -0.000000 -0.000000 0.000001 -0.000000 -0.000000 0.000002 0.000000 0.000000 0.000002 0.000000 0.000000 -0.000000 0.000000 0.000000 
0.817147 72.040077 35.167847 12.540591 -1.577404 -3.825847 0.000001 0.000000 0.000000 -85.115229 -2.521390 8.977102 119.172376 1.929065 -2.263935 -3.834768 0.152453 0.308548 -0.000001 -0.000000 -0.000000 -0.000001 -0.000000 0.000000 -0.000001 -0.000000 -0.000000 -30.864631 -9.330743 7.337035 57.552519 -0.573053 -0.825137 -36.327085 0.932542 -7.436460 0.000000 -0.000000 0.000000 0.000000 -0.000000 0.000000 0.000005 -0.000001 0.000000 11.616721 3.260700 5.004189 2.983595 0.736435 -0.674759 5.744168 0.609385 -1.028370 -3.883336 -0.735808 0.343319 -18.155242 -0.681945 -0.632056 -0.000001 0.000000 -0.000000 -0.000001 0.000000 -0.000000 -0.000001 0.000000 -0.000000 0.538971 -4.141283 -11.327450 18.370851 -3.661176 -55.120877 -0.000009 -80.178839 -0.000038 -2.644597 -4.276815 7.635062 -0.807188 6.718941 -5.782602 14.154871 15.340485 18.552307 -0.000003 -0.000002 0.000004 10.177119 5.709229 -91.444861 4.091562 5.581132 -72.470725 -0.000001 0.000002 -0.000001 4.935995 8.117141 -81.132894 4.701065 5.737313 -78.645728 -0.000003 0.000002 0.000000 2.707408 7.688524 -78.953312 6.001576 5.849128 -91.476717 -0.000003 -0.000003 -0.000001 7.265171 13.551515 -79.043956 4.454879 5.682618 -76.171629 0.000002 0.000004 -0.000003 0.000003 0.000002 -0.000001 0.447438 5.899440 10.987406 -20.430612 18.612569 45.715214 0.000393 95.070639 -0.000348 7.385910 12.237852 -22.965982 5.508433 -3.890101 -3.161991 2.405786 -8.921135 -16.079549 -0.000002 -0.000000 0.000002 -3.588200 -3.452447 73.842582 3.506347 -4.513032 75.678195 -0.000000 0.000001 0.000005 -3.111902 -5.064242 75.383869 3.813410 -4.580267 79.550544 0.000003 0.000000 0.000000 -3.994947 -5.440492 79.657245 3.162422 -4.411278 71.260033 -0.000001 0.000001 0.000001 -1.718460 -6.501717 85.197867 3.559467 -4.526250 76.352383 0.000000 -0.000001 0.000002 -0.000000 -0.000001 -0.000002 0.000002 0.000000 0.000000 0.000002 0.000000 0.000000 0.000002 0.000000 0.000000 0.000002 0.000000 0.000000 0.000002 0.000000 0.000000 0.000001 0.000000 0.000000 0.000002 0.000000 0.000000 0.000002 0.000000 0.000000 0.000001 0.000000 0.000000 -0.000001 -0.000000 -0.000000 -0.000001 -0.000000 -0.000000 0.000001 0.000000 0.000000 
0.877787 72.480446 38.703209 12.256985 -1.413749 -3.407276 0.000001 -0.000000 0.000000 -88.817068 -2.261117 9.515811 109.847275 -2.557578 -3.933211 -11.727663 0.379211 -2.152967 -0.000001 -0.000000 0.000000 -0.000001 -0.000000 0.000001 0.000003 0.000000 0.000001 -26.629875 -8.512782 7.849526 55.549297 0.017488 -1.743273 -35.928164 -1.649520 -7.220149 -0.000000 -0.000000 0.000000 -0.000000 -0.000000 0.000000 -0.000002 0.000000 0.000001 12.166984 3.794036 3.990487 3.317687 1.004296 -1.066091 5.969676 0.834223 -1.426133 -3.184215 -0.852758 0.456091 -17.958343 -1.476783 0.463308 0.000001 0.000000 -0.000000 0.000001 0.000000 -0.000000 0.000001 0.000000 -0.000000 0.522139 -4.229543 -10.713357 21.185307 -3.140021 -55.477587 -0.000014 -77.628269 0.000006 -2.809227 -4.161621 6.201259 -0.792428 6.824523 -5.691688 14.140007 15.289240 18.718258 -0.000002 0.000001 0.000002 10.431885 5.674568 -92.119588 4.133075 5.593996 -72.897120 -0.000001 -0.000000 -0.000004 4.994385 8.126724 -81.720338 4.749352 5.746756 -79.128261 0.000001 0.000002 -0.000003 2.656614 7.700856 -79.518811 6.062256 5.847274 -92.072186 -0.000001 0.000003 0.000000 7.213189 13.503575 -79.606094 4.500468 5.693597 -76.631656 0.000002 -0.000002 0.000006 0.000001 -0.000002 0.000001 0.476050 6.147940 11.241230 -21.265152 13.374088 46.275426 0.000572 97.989924 -0.000533 9.380811 14.068462 -25.678508 5.481889 -4.005300 -3.287312 2.355685 -8.768390 -16.214954 0.000002 0.000000 -0.000006 -3.454672 -3.598526 74.557812 3.548283 -4.523516 76.210684 -0.000001 0.000003 0.000000 -3.148543 -5.146992 76.121482 3.859349 -4.588476 80.125537 0.000001 0.000002 0.000000 -4.164347 -5.524062 80.439111 3.199520 -4.423648 71.741698 -0.000002 0.000000 -0.000001 -1.984436 -6.560228 86.144607 3.602100 -4.536358 76.892344 0.000003 0.000000 0.000000 0.000001 -0.000000 0.000001 0.000002 -0.000000 0.000000 0.000002 -0.000000 0.000000 0.000002 -0.000000 0.000000 0.000002 -0.000000 0.000000 0.000002 -0.000000 0.000000 0.000002 0.000000 0.000000 0.000002 -0.000000 0.000000 0.000002 -0.000000 0.000000 0.000002 0.000000 0.000000 0.000000 0.000000 0.000000 0.000000 0.000000 0.000000 0.000001 -0.000000 0.000000 
